<svg width="32" height="32" viewBox="0 0 32 32" fill="none" xmlns="http://www.w3.org/2000/svg">
<path d="M3.78026 9.24911C3.65527 7.32724 3.49902 6.29078 3.45214 5.60849C3.41695 5.09623 3.47558 4.54208 4.16308 4.41708C4.76074 4.34286 5.04589 4.8689 5.06933 5.07724C5.06672 4.87672 5.06933 4.39771 5.06933 4.27255C5.06933 4.06161 5.07714 3.29598 5.9287 3.29598C6.53004 3.29598 6.74511 3.88322 6.72949 4.15927C6.73991 4.0577 6.75214 3.74598 6.76464 3.45223C6.78308 3.01893 7.01621 2.46317 7.70996 2.47567C8.30761 2.51473 8.50293 3.08895 8.47557 3.45223L8.35839 5.31942C8.38182 5.13192 8.46074 4.65458 8.63574 3.97958C8.81074 3.30458 9.33732 3.25979 9.59276 3.29598C9.91875 3.34216 10.4724 3.65692 10.2412 4.56942C9.9662 5.72567 9.77897 7.21395 9.71386 7.85458C10.0334 7.72369 10.3188 7.42587 10.6709 7.05833L10.6865 7.04208C11.0459 6.66708 11.6201 6.71004 11.8584 6.93661C12.2217 7.17098 12.4209 7.87411 12.0186 8.27645C11.5561 8.70145 9.88964 10.6814 9.06151 11.671C8.83235 11.9626 8.06464 12.546 6.82714 12.546C4.62401 12.4522 3.88567 10.8699 3.78026 9.24911Z" fill="url(#paint0_radial_26489_1793)"/>
<path d="M3.78026 9.24911C3.65527 7.32724 3.49902 6.29078 3.45214 5.60849C3.41695 5.09623 3.47558 4.54208 4.16308 4.41708C4.76074 4.34286 5.04589 4.8689 5.06933 5.07724C5.06672 4.87672 5.06933 4.39771 5.06933 4.27255C5.06933 4.06161 5.07714 3.29598 5.9287 3.29598C6.53004 3.29598 6.74511 3.88322 6.72949 4.15927C6.73991 4.0577 6.75214 3.74598 6.76464 3.45223C6.78308 3.01893 7.01621 2.46317 7.70996 2.47567C8.30761 2.51473 8.50293 3.08895 8.47557 3.45223L8.35839 5.31942C8.38182 5.13192 8.46074 4.65458 8.63574 3.97958C8.81074 3.30458 9.33732 3.25979 9.59276 3.29598C9.91875 3.34216 10.4724 3.65692 10.2412 4.56942C9.9662 5.72567 9.77897 7.21395 9.71386 7.85458C10.0334 7.72369 10.3188 7.42587 10.6709 7.05833L10.6865 7.04208C11.0459 6.66708 11.6201 6.71004 11.8584 6.93661C12.2217 7.17098 12.4209 7.87411 12.0186 8.27645C11.5561 8.70145 9.88964 10.6814 9.06151 11.671C8.83235 11.9626 8.06464 12.546 6.82714 12.546C4.62401 12.4522 3.88567 10.8699 3.78026 9.24911Z" fill="url(#paint1_radial_26489_1793)"/>
<path d="M3.78026 9.24911C3.65527 7.32724 3.49902 6.29078 3.45214 5.60849C3.41695 5.09623 3.47558 4.54208 4.16308 4.41708C4.76074 4.34286 5.04589 4.8689 5.06933 5.07724C5.06672 4.87672 5.06933 4.39771 5.06933 4.27255C5.06933 4.06161 5.07714 3.29598 5.9287 3.29598C6.53004 3.29598 6.74511 3.88322 6.72949 4.15927C6.73991 4.0577 6.75214 3.74598 6.76464 3.45223C6.78308 3.01893 7.01621 2.46317 7.70996 2.47567C8.30761 2.51473 8.50293 3.08895 8.47557 3.45223L8.35839 5.31942C8.38182 5.13192 8.46074 4.65458 8.63574 3.97958C8.81074 3.30458 9.33732 3.25979 9.59276 3.29598C9.91875 3.34216 10.4724 3.65692 10.2412 4.56942C9.9662 5.72567 9.77897 7.21395 9.71386 7.85458C10.0334 7.72369 10.3188 7.42587 10.6709 7.05833L10.6865 7.04208C11.0459 6.66708 11.6201 6.71004 11.8584 6.93661C12.2217 7.17098 12.4209 7.87411 12.0186 8.27645C11.5561 8.70145 9.88964 10.6814 9.06151 11.671C8.83235 11.9626 8.06464 12.546 6.82714 12.546C4.62401 12.4522 3.88567 10.8699 3.78026 9.24911Z" fill="url(#paint2_linear_26489_1793)"/>
<path d="M3.78026 9.24911C3.65527 7.32724 3.49902 6.29078 3.45214 5.60849C3.41695 5.09623 3.47558 4.54208 4.16308 4.41708C4.76074 4.34286 5.04589 4.8689 5.06933 5.07724C5.06672 4.87672 5.06933 4.39771 5.06933 4.27255C5.06933 4.06161 5.07714 3.29598 5.9287 3.29598C6.53004 3.29598 6.74511 3.88322 6.72949 4.15927C6.73991 4.0577 6.75214 3.74598 6.76464 3.45223C6.78308 3.01893 7.01621 2.46317 7.70996 2.47567C8.30761 2.51473 8.50293 3.08895 8.47557 3.45223L8.35839 5.31942C8.38182 5.13192 8.46074 4.65458 8.63574 3.97958C8.81074 3.30458 9.33732 3.25979 9.59276 3.29598C9.91875 3.34216 10.4724 3.65692 10.2412 4.56942C9.9662 5.72567 9.77897 7.21395 9.71386 7.85458C10.0334 7.72369 10.3188 7.42587 10.6709 7.05833L10.6865 7.04208C11.0459 6.66708 11.6201 6.71004 11.8584 6.93661C12.2217 7.17098 12.4209 7.87411 12.0186 8.27645C11.5561 8.70145 9.88964 10.6814 9.06151 11.671C8.83235 11.9626 8.06464 12.546 6.82714 12.546C4.62401 12.4522 3.88567 10.8699 3.78026 9.24911Z" fill="url(#paint3_radial_26489_1793)"/>
<path d="M3.78026 9.24911C3.65527 7.32724 3.49902 6.29078 3.45214 5.60849C3.41695 5.09623 3.47558 4.54208 4.16308 4.41708C4.76074 4.34286 5.04589 4.8689 5.06933 5.07724C5.06672 4.87672 5.06933 4.39771 5.06933 4.27255C5.06933 4.06161 5.07714 3.29598 5.9287 3.29598C6.53004 3.29598 6.74511 3.88322 6.72949 4.15927C6.73991 4.0577 6.75214 3.74598 6.76464 3.45223C6.78308 3.01893 7.01621 2.46317 7.70996 2.47567C8.30761 2.51473 8.50293 3.08895 8.47557 3.45223L8.35839 5.31942C8.38182 5.13192 8.46074 4.65458 8.63574 3.97958C8.81074 3.30458 9.33732 3.25979 9.59276 3.29598C9.91875 3.34216 10.4724 3.65692 10.2412 4.56942C9.9662 5.72567 9.77897 7.21395 9.71386 7.85458C10.0334 7.72369 10.3188 7.42587 10.6709 7.05833L10.6865 7.04208C11.0459 6.66708 11.6201 6.71004 11.8584 6.93661C12.2217 7.17098 12.4209 7.87411 12.0186 8.27645C11.5561 8.70145 9.88964 10.6814 9.06151 11.671C8.83235 11.9626 8.06464 12.546 6.82714 12.546C4.62401 12.4522 3.88567 10.8699 3.78026 9.24911Z" fill="url(#paint4_radial_26489_1793)"/>
<path d="M3.78026 9.24911C3.65527 7.32724 3.49902 6.29078 3.45214 5.60849C3.41695 5.09623 3.47558 4.54208 4.16308 4.41708C4.76074 4.34286 5.04589 4.8689 5.06933 5.07724C5.06672 4.87672 5.06933 4.39771 5.06933 4.27255C5.06933 4.06161 5.07714 3.29598 5.9287 3.29598C6.53004 3.29598 6.74511 3.88322 6.72949 4.15927C6.73991 4.0577 6.75214 3.74598 6.76464 3.45223C6.78308 3.01893 7.01621 2.46317 7.70996 2.47567C8.30761 2.51473 8.50293 3.08895 8.47557 3.45223L8.35839 5.31942C8.38182 5.13192 8.46074 4.65458 8.63574 3.97958C8.81074 3.30458 9.33732 3.25979 9.59276 3.29598C9.91875 3.34216 10.4724 3.65692 10.2412 4.56942C9.9662 5.72567 9.77897 7.21395 9.71386 7.85458C10.0334 7.72369 10.3188 7.42587 10.6709 7.05833L10.6865 7.04208C11.0459 6.66708 11.6201 6.71004 11.8584 6.93661C12.2217 7.17098 12.4209 7.87411 12.0186 8.27645C11.5561 8.70145 9.88964 10.6814 9.06151 11.671C8.83235 11.9626 8.06464 12.546 6.82714 12.546C4.62401 12.4522 3.88567 10.8699 3.78026 9.24911Z" fill="url(#paint5_radial_26489_1793)"/>
<path d="M3.78026 9.24911C3.65527 7.32724 3.49902 6.29078 3.45214 5.60849C3.41695 5.09623 3.47558 4.54208 4.16308 4.41708C4.76074 4.34286 5.04589 4.8689 5.06933 5.07724C5.06672 4.87672 5.06933 4.39771 5.06933 4.27255C5.06933 4.06161 5.07714 3.29598 5.9287 3.29598C6.53004 3.29598 6.74511 3.88322 6.72949 4.15927C6.73991 4.0577 6.75214 3.74598 6.76464 3.45223C6.78308 3.01893 7.01621 2.46317 7.70996 2.47567C8.30761 2.51473 8.50293 3.08895 8.47557 3.45223L8.35839 5.31942C8.38182 5.13192 8.46074 4.65458 8.63574 3.97958C8.81074 3.30458 9.33732 3.25979 9.59276 3.29598C9.91875 3.34216 10.4724 3.65692 10.2412 4.56942C9.9662 5.72567 9.77897 7.21395 9.71386 7.85458C10.0334 7.72369 10.3188 7.42587 10.6709 7.05833L10.6865 7.04208C11.0459 6.66708 11.6201 6.71004 11.8584 6.93661C12.2217 7.17098 12.4209 7.87411 12.0186 8.27645C11.5561 8.70145 9.88964 10.6814 9.06151 11.671C8.83235 11.9626 8.06464 12.546 6.82714 12.546C4.62401 12.4522 3.88567 10.8699 3.78026 9.24911Z" fill="url(#paint6_radial_26489_1793)"/>
<path d="M3.78026 9.24911C3.65527 7.32724 3.49902 6.29078 3.45214 5.60849C3.41695 5.09623 3.47558 4.54208 4.16308 4.41708C4.76074 4.34286 5.04589 4.8689 5.06933 5.07724C5.06672 4.87672 5.06933 4.39771 5.06933 4.27255C5.06933 4.06161 5.07714 3.29598 5.9287 3.29598C6.53004 3.29598 6.74511 3.88322 6.72949 4.15927C6.73991 4.0577 6.75214 3.74598 6.76464 3.45223C6.78308 3.01893 7.01621 2.46317 7.70996 2.47567C8.30761 2.51473 8.50293 3.08895 8.47557 3.45223L8.35839 5.31942C8.38182 5.13192 8.46074 4.65458 8.63574 3.97958C8.81074 3.30458 9.33732 3.25979 9.59276 3.29598C9.91875 3.34216 10.4724 3.65692 10.2412 4.56942C9.9662 5.72567 9.77897 7.21395 9.71386 7.85458C10.0334 7.72369 10.3188 7.42587 10.6709 7.05833L10.6865 7.04208C11.0459 6.66708 11.6201 6.71004 11.8584 6.93661C12.2217 7.17098 12.4209 7.87411 12.0186 8.27645C11.5561 8.70145 9.88964 10.6814 9.06151 11.671C8.83235 11.9626 8.06464 12.546 6.82714 12.546C4.62401 12.4522 3.88567 10.8699 3.78026 9.24911Z" fill="url(#paint7_radial_26489_1793)"/>
<path d="M3.78026 9.24911C3.65527 7.32724 3.49902 6.29078 3.45214 5.60849C3.41695 5.09623 3.47558 4.54208 4.16308 4.41708C4.76074 4.34286 5.04589 4.8689 5.06933 5.07724C5.06672 4.87672 5.06933 4.39771 5.06933 4.27255C5.06933 4.06161 5.07714 3.29598 5.9287 3.29598C6.53004 3.29598 6.74511 3.88322 6.72949 4.15927C6.73991 4.0577 6.75214 3.74598 6.76464 3.45223C6.78308 3.01893 7.01621 2.46317 7.70996 2.47567C8.30761 2.51473 8.50293 3.08895 8.47557 3.45223L8.35839 5.31942C8.38182 5.13192 8.46074 4.65458 8.63574 3.97958C8.81074 3.30458 9.33732 3.25979 9.59276 3.29598C9.91875 3.34216 10.4724 3.65692 10.2412 4.56942C9.9662 5.72567 9.77897 7.21395 9.71386 7.85458C10.0334 7.72369 10.3188 7.42587 10.6709 7.05833L10.6865 7.04208C11.0459 6.66708 11.6201 6.71004 11.8584 6.93661C12.2217 7.17098 12.4209 7.87411 12.0186 8.27645C11.5561 8.70145 9.88964 10.6814 9.06151 11.671C8.83235 11.9626 8.06464 12.546 6.82714 12.546C4.62401 12.4522 3.88567 10.8699 3.78026 9.24911Z" fill="url(#paint8_radial_26489_1793)"/>
<path d="M3.78026 9.24911C3.65527 7.32724 3.49902 6.29078 3.45214 5.60849C3.41695 5.09623 3.47558 4.54208 4.16308 4.41708C4.76074 4.34286 5.04589 4.8689 5.06933 5.07724C5.06672 4.87672 5.06933 4.39771 5.06933 4.27255C5.06933 4.06161 5.07714 3.29598 5.9287 3.29598C6.53004 3.29598 6.74511 3.88322 6.72949 4.15927C6.73991 4.0577 6.75214 3.74598 6.76464 3.45223C6.78308 3.01893 7.01621 2.46317 7.70996 2.47567C8.30761 2.51473 8.50293 3.08895 8.47557 3.45223L8.35839 5.31942C8.38182 5.13192 8.46074 4.65458 8.63574 3.97958C8.81074 3.30458 9.33732 3.25979 9.59276 3.29598C9.91875 3.34216 10.4724 3.65692 10.2412 4.56942C9.9662 5.72567 9.77897 7.21395 9.71386 7.85458C10.0334 7.72369 10.3188 7.42587 10.6709 7.05833L10.6865 7.04208C11.0459 6.66708 11.6201 6.71004 11.8584 6.93661C12.2217 7.17098 12.4209 7.87411 12.0186 8.27645C11.5561 8.70145 9.88964 10.6814 9.06151 11.671C8.83235 11.9626 8.06464 12.546 6.82714 12.546C4.62401 12.4522 3.88567 10.8699 3.78026 9.24911Z" fill="url(#paint9_radial_26489_1793)"/>
<path d="M3.78026 9.24911C3.65527 7.32724 3.49902 6.29078 3.45214 5.60849C3.41695 5.09623 3.47558 4.54208 4.16308 4.41708C4.76074 4.34286 5.04589 4.8689 5.06933 5.07724C5.06672 4.87672 5.06933 4.39771 5.06933 4.27255C5.06933 4.06161 5.07714 3.29598 5.9287 3.29598C6.53004 3.29598 6.74511 3.88322 6.72949 4.15927C6.73991 4.0577 6.75214 3.74598 6.76464 3.45223C6.78308 3.01893 7.01621 2.46317 7.70996 2.47567C8.30761 2.51473 8.50293 3.08895 8.47557 3.45223L8.35839 5.31942C8.38182 5.13192 8.46074 4.65458 8.63574 3.97958C8.81074 3.30458 9.33732 3.25979 9.59276 3.29598C9.91875 3.34216 10.4724 3.65692 10.2412 4.56942C9.9662 5.72567 9.77897 7.21395 9.71386 7.85458C10.0334 7.72369 10.3188 7.42587 10.6709 7.05833L10.6865 7.04208C11.0459 6.66708 11.6201 6.71004 11.8584 6.93661C12.2217 7.17098 12.4209 7.87411 12.0186 8.27645C11.5561 8.70145 9.88964 10.6814 9.06151 11.671C8.83235 11.9626 8.06464 12.546 6.82714 12.546C4.62401 12.4522 3.88567 10.8699 3.78026 9.24911Z" fill="url(#paint10_radial_26489_1793)"/>
<path d="M4.8501 12.1784C4.8501 12.0679 4.93964 11.9784 5.0501 11.9784H8.86104C8.97149 11.9784 9.06104 12.0679 9.06104 12.1784V13.8925H4.8501V12.1784Z" fill="url(#paint11_linear_26489_1793)"/>
<path d="M4.8501 12.1784C4.8501 12.0679 4.93964 11.9784 5.0501 11.9784H8.86104C8.97149 11.9784 9.06104 12.0679 9.06104 12.1784V13.8925H4.8501V12.1784Z" fill="url(#paint12_linear_26489_1793)"/>
<path d="M20.5268 21.0018H21.5C24 21.0018 29 24.5018 29 30.0018H11V26.5018C11 26.2252 10.8299 25.969 10.5843 25.8768L7.5 24.5018C5 23.5018 4 21.0018 4 19.3038V14.0163C4 13.4527 4.42517 13.0018 4.93537 13.0018L9.06463 13.0018C9.58428 13.0018 10 13.463 10 14.0163V18.0018C10 19.3038 11 19.5018 11 19.5018L17 21.0018H20.5268Z" fill="#FF611D"/>
<path d="M20.5268 21.0018H21.5C24 21.0018 29 24.5018 29 30.0018H11V26.5018C11 26.2252 10.8299 25.969 10.5843 25.8768L7.5 24.5018C5 23.5018 4 21.0018 4 19.3038V14.0163C4 13.4527 4.42517 13.0018 4.93537 13.0018L9.06463 13.0018C9.58428 13.0018 10 13.463 10 14.0163V18.0018C10 19.3038 11 19.5018 11 19.5018L17 21.0018H20.5268Z" fill="url(#paint13_radial_26489_1793)"/>
<path d="M20.5268 21.0018H21.5C24 21.0018 29 24.5018 29 30.0018H11V26.5018C11 26.2252 10.8299 25.969 10.5843 25.8768L7.5 24.5018C5 23.5018 4 21.0018 4 19.3038V14.0163C4 13.4527 4.42517 13.0018 4.93537 13.0018L9.06463 13.0018C9.58428 13.0018 10 13.463 10 14.0163V18.0018C10 19.3038 11 19.5018 11 19.5018L17 21.0018H20.5268Z" fill="url(#paint14_radial_26489_1793)"/>
<path d="M18.858 21.1112L10.9843 26.3565C10.9369 26.139 10.7861 25.9525 10.5843 25.8768L7.5 24.5018C5 23.5018 4 21.0018 4 19.3038V14.0163C4 13.4527 4.42517 13.0018 4.93537 13.0018L9.06463 13.0018C9.58428 13.0018 10 13.463 10 14.0163V18.0018C10 19.3038 11 19.5018 11 19.5018L17 21.0018L18.858 21.1112Z" fill="url(#paint15_linear_26489_1793)"/>
<path d="M18.858 21.1112L10.9843 26.3565C10.9369 26.139 10.7861 25.9525 10.5843 25.8768L7.5 24.5018C5 23.5018 4 21.0018 4 19.3038V14.0163C4 13.4527 4.42517 13.0018 4.93537 13.0018L9.06463 13.0018C9.58428 13.0018 10 13.463 10 14.0163V18.0018C10 19.3038 11 19.5018 11 19.5018L17 21.0018L18.858 21.1112Z" fill="url(#paint16_radial_26489_1793)"/>
<path d="M18.858 21.1112L10.9843 26.3565C10.9369 26.139 10.7861 25.9525 10.5843 25.8768L7.5 24.5018C5 23.5018 4 21.0018 4 19.3038V14.0163C4 13.4527 4.42517 13.0018 4.93537 13.0018L9.06463 13.0018C9.58428 13.0018 10 13.463 10 14.0163V18.0018C10 19.3038 11 19.5018 11 19.5018L17 21.0018L18.858 21.1112Z" fill="url(#paint17_radial_26489_1793)"/>
<path d="M18.858 21.1112L10.9843 26.3565C10.9369 26.139 10.7861 25.9525 10.5843 25.8768L7.5 24.5018C5 23.5018 4 21.0018 4 19.3038V14.0163C4 13.4527 4.42517 13.0018 4.93537 13.0018L9.06463 13.0018C9.58428 13.0018 10 13.463 10 14.0163V18.0018C10 19.3038 11 19.5018 11 19.5018L17 21.0018L18.858 21.1112Z" fill="url(#paint18_linear_26489_1793)"/>
<path d="M19.5001 24.0018C18.2323 24.0018 17.2039 23.0164 17.2039 21.8016V19.2021C17.2039 17.9873 18.2323 17.0018 19.5001 17.0018C20.7678 17.0018 21.7962 17.9873 21.7962 19.2021V21.8016C21.7962 23.0164 20.7678 24.0018 19.5001 24.0018Z" fill="url(#paint19_linear_26489_1793)"/>
<path d="M19.5001 24.0018C18.2323 24.0018 17.2039 23.0164 17.2039 21.8016V19.2021C17.2039 17.9873 18.2323 17.0018 19.5001 17.0018C20.7678 17.0018 21.7962 17.9873 21.7962 19.2021V21.8016C21.7962 23.0164 20.7678 24.0018 19.5001 24.0018Z" fill="url(#paint20_radial_26489_1793)"/>
<path d="M25.2456 15.67C25.6418 15.6572 26.0128 15.5228 26.3147 15.3053V16.4057C26.3147 17.4612 25.6858 18.4017 24.7299 18.7919C24.9311 18.3633 25.0695 17.8963 25.1387 17.3973L25.2456 15.67Z" fill="url(#paint21_radial_26489_1793)"/>
<path d="M25.2456 15.67C25.6418 15.6572 26.0128 15.5228 26.3147 15.3053V16.4057C26.3147 17.4612 25.6858 18.4017 24.7299 18.7919C24.9311 18.3633 25.0695 17.8963 25.1387 17.3973L25.2456 15.67Z" fill="url(#paint22_radial_26489_1793)"/>
<path d="M13.7544 15.67C13.3582 15.6572 12.9872 15.5228 12.6853 15.3053V16.4057C12.6853 17.4612 13.3142 18.4017 14.2701 18.7919C14.0689 18.3633 13.9305 17.8963 13.8613 17.3973L13.7544 15.67Z" fill="url(#paint23_radial_26489_1793)"/>
<path d="M13.7544 15.67C13.3582 15.6572 12.9872 15.5228 12.6853 15.3053V16.4057C12.6853 17.4612 13.3142 18.4017 14.2701 18.7919C14.0689 18.3633 13.9305 17.8963 13.8613 17.3973L13.7544 15.67Z" fill="url(#paint24_radial_26489_1793)"/>
<g filter="url(#filter0_ii_26489_1793)">
<path d="M13.7973 17.4607C14.1013 19.7682 16.065 21.4861 18.3898 21.4861H20.6195C22.9443 21.4861 24.908 19.7682 25.2121 17.4607C25.3515 15.2343 25.4917 13.0169 25.5952 10.7917C25.5826 9.88521 24.868 9.13718 23.9653 9.09915H22.3104C21.1821 9.09915 20.1603 8.43352 19.6964 7.39388C19.5773 7.09593 19.289 6.89941 18.9693 6.89941H17.4648C15.2834 6.89941 13.5156 8.68709 13.5156 10.8932C13.5156 13.0924 13.653 15.2559 13.7973 17.4607Z" fill="url(#paint25_radial_26489_1793)"/>
</g>
<path d="M13.7973 17.4607C14.1013 19.7682 16.065 21.4861 18.3898 21.4861H20.6195C22.9443 21.4861 24.908 19.7682 25.2121 17.4607C25.3515 15.2343 25.4917 13.0169 25.5952 10.7917C25.5826 9.88521 24.868 9.13718 23.9653 9.09915H22.3104C21.1821 9.09915 20.1603 8.43352 19.6964 7.39388C19.5773 7.09593 19.289 6.89941 18.9693 6.89941H17.4648C15.2834 6.89941 13.5156 8.68709 13.5156 10.8932C13.5156 13.0924 13.653 15.2559 13.7973 17.4607Z" fill="url(#paint26_radial_26489_1793)"/>
<path d="M13.7973 17.4607C14.1013 19.7682 16.065 21.4861 18.3898 21.4861H20.6195C22.9443 21.4861 24.908 19.7682 25.2121 17.4607C25.3515 15.2343 25.4917 13.0169 25.5952 10.7917C25.5826 9.88521 24.868 9.13718 23.9653 9.09915H22.3104C21.1821 9.09915 20.1603 8.43352 19.6964 7.39388C19.5773 7.09593 19.289 6.89941 18.9693 6.89941H17.4648C15.2834 6.89941 13.5156 8.68709 13.5156 10.8932C13.5156 13.0924 13.653 15.2559 13.7973 17.4607Z" fill="url(#paint27_radial_26489_1793)"/>
<path d="M13.7973 17.4607C14.1013 19.7682 16.065 21.4861 18.3898 21.4861H20.6195C22.9443 21.4861 24.908 19.7682 25.2121 17.4607C25.3515 15.2343 25.4917 13.0169 25.5952 10.7917C25.5826 9.88521 24.868 9.13718 23.9653 9.09915H22.3104C21.1821 9.09915 20.1603 8.43352 19.6964 7.39388C19.5773 7.09593 19.289 6.89941 18.9693 6.89941H17.4648C15.2834 6.89941 13.5156 8.68709 13.5156 10.8932C13.5156 13.0924 13.653 15.2559 13.7973 17.4607Z" fill="url(#paint28_radial_26489_1793)"/>
<path d="M13.7973 17.4607C14.1013 19.7682 16.065 21.4861 18.3898 21.4861H20.6195C22.9443 21.4861 24.908 19.7682 25.2121 17.4607C25.3515 15.2343 25.4917 13.0169 25.5952 10.7917C25.5826 9.88521 24.868 9.13718 23.9653 9.09915H22.3104C21.1821 9.09915 20.1603 8.43352 19.6964 7.39388C19.5773 7.09593 19.289 6.89941 18.9693 6.89941H17.4648C15.2834 6.89941 13.5156 8.68709 13.5156 10.8932C13.5156 13.0924 13.653 15.2559 13.7973 17.4607Z" fill="url(#paint29_radial_26489_1793)"/>
<g filter="url(#filter1_f_26489_1793)">
<path d="M18.9256 13.5795L18.1751 15.7522C18.0469 16.1992 18.3546 16.6461 18.7904 16.6461H19.7198C20.1557 16.6461 20.4634 16.1923 20.3352 15.7522L19.707 13.5795C19.5724 13.0982 19.0666 13.0982 18.9256 13.5795Z" fill="#EE9020"/>
</g>
<g filter="url(#filter2_f_26489_1793)">
<path d="M19.0481 13.348L18.42 15.5208C18.2918 15.9677 18.5994 16.4147 19.0353 16.4147H19.9647C20.4006 16.4147 20.7082 15.9608 20.58 15.5208L19.9519 13.348C19.8173 12.8667 19.1891 12.8667 19.0481 13.348Z" fill="url(#paint30_linear_26489_1793)"/>
<path d="M19.0481 13.348L18.42 15.5208C18.2918 15.9677 18.5994 16.4147 19.0353 16.4147H19.9647C20.4006 16.4147 20.7082 15.9608 20.58 15.5208L19.9519 13.348C19.8173 12.8667 19.1891 12.8667 19.0481 13.348Z" fill="url(#paint31_linear_26489_1793)"/>
<path d="M19.0481 13.348L18.42 15.5208C18.2918 15.9677 18.5994 16.4147 19.0353 16.4147H19.9647C20.4006 16.4147 20.7082 15.9608 20.58 15.5208L19.9519 13.348C19.8173 12.8667 19.1891 12.8667 19.0481 13.348Z" fill="url(#paint32_linear_26489_1793)"/>
<path d="M19.0481 13.348L18.42 15.5208C18.2918 15.9677 18.5994 16.4147 19.0353 16.4147H19.9647C20.4006 16.4147 20.7082 15.9608 20.58 15.5208L19.9519 13.348C19.8173 12.8667 19.1891 12.8667 19.0481 13.348Z" fill="url(#paint33_linear_26489_1793)"/>
</g>
<g filter="url(#filter3_f_26489_1793)">
<path d="M17.8971 17.1615L17.8971 17.1615L17.8965 17.1611C17.7821 17.103 17.6629 17.1394 17.5922 17.2138C17.5211 17.2887 17.4925 17.4097 17.5664 17.517C17.9758 18.137 18.6886 18.5499 19.4999 18.5499C20.3115 18.5499 21.0245 18.1367 21.4338 17.5165C21.5065 17.4073 21.4798 17.2865 21.4073 17.2113C21.3358 17.137 21.2167 17.1035 21.1034 17.1611L21.1034 17.1611L21.1027 17.1615C20.6399 17.4028 20.094 17.5412 19.4999 17.5412C18.9118 17.5412 18.3599 17.4027 17.8971 17.1615Z" stroke="url(#paint34_radial_26489_1793)" stroke-width="0.15"/>
</g>
<path d="M19.4999 17.6162C18.9001 17.6162 18.3363 17.475 17.8625 17.228C17.7005 17.1457 17.5266 17.328 17.6286 17.475C18.0244 18.0749 18.7142 18.4749 19.4999 18.4749C20.2857 18.4749 20.9754 18.0749 21.3713 17.475C21.4733 17.3221 21.2993 17.1457 21.1374 17.228C20.6635 17.475 20.1057 17.6162 19.4999 17.6162Z" fill="url(#paint35_radial_26489_1793)"/>
<g filter="url(#filter4_ii_26489_1793)">
<path d="M25.238 6.34153C25.846 6.55073 26.3914 6.97546 26.7361 7.58403C27.2878 8.55395 27.2063 9.71404 26.6108 10.5698C26.4039 10.8741 26.2911 11.2355 26.2911 11.6031V13.0073C26.07 12.8533 25.7783 12.7391 25.5025 12.6903L25.5953 10.7917C25.5827 9.8852 24.8681 9.13716 23.9654 9.09912H22.3105C21.1822 9.09912 20.1604 8.4335 19.6965 7.39386C19.5774 7.09591 19.2891 6.89939 18.9694 6.89939H17.4649C15.2835 6.89939 13.5157 8.68707 13.5157 10.8931L13.5519 12.7101C13.2518 12.7543 12.9382 12.8546 12.7008 13.0218V11.6031C12.7008 11.2355 12.588 10.8741 12.3811 10.5698C11.8169 9.73939 11.7166 8.62368 12.2119 7.67912C12.5566 7.02618 13.1145 6.56975 13.7477 6.34787C14.4247 6.10698 15.0014 5.65055 15.3838 5.03564C15.8727 4.25591 16.7315 3.73608 17.7157 3.73608C18.0981 3.73608 18.4616 3.81849 18.8001 3.95796C19.2515 4.15448 19.7592 4.15448 20.2106 3.95796C20.5428 3.81849 20.9064 3.73608 21.2888 3.73608C22.2855 3.73608 23.1568 4.27492 23.6395 5.07367C24.003 5.67591 24.5735 6.11332 25.238 6.34153Z" fill="url(#paint36_linear_26489_1793)"/>
<path d="M25.238 6.34153C25.846 6.55073 26.3914 6.97546 26.7361 7.58403C27.2878 8.55395 27.2063 9.71404 26.6108 10.5698C26.4039 10.8741 26.2911 11.2355 26.2911 11.6031V13.0073C26.07 12.8533 25.7783 12.7391 25.5025 12.6903L25.5953 10.7917C25.5827 9.8852 24.8681 9.13716 23.9654 9.09912H22.3105C21.1822 9.09912 20.1604 8.4335 19.6965 7.39386C19.5774 7.09591 19.2891 6.89939 18.9694 6.89939H17.4649C15.2835 6.89939 13.5157 8.68707 13.5157 10.8931L13.5519 12.7101C13.2518 12.7543 12.9382 12.8546 12.7008 13.0218V11.6031C12.7008 11.2355 12.588 10.8741 12.3811 10.5698C11.8169 9.73939 11.7166 8.62368 12.2119 7.67912C12.5566 7.02618 13.1145 6.56975 13.7477 6.34787C14.4247 6.10698 15.0014 5.65055 15.3838 5.03564C15.8727 4.25591 16.7315 3.73608 17.7157 3.73608C18.0981 3.73608 18.4616 3.81849 18.8001 3.95796C19.2515 4.15448 19.7592 4.15448 20.2106 3.95796C20.5428 3.81849 20.9064 3.73608 21.2888 3.73608C22.2855 3.73608 23.1568 4.27492 23.6395 5.07367C24.003 5.67591 24.5735 6.11332 25.238 6.34153Z" fill="url(#paint37_radial_26489_1793)"/>
<path d="M25.238 6.34153C25.846 6.55073 26.3914 6.97546 26.7361 7.58403C27.2878 8.55395 27.2063 9.71404 26.6108 10.5698C26.4039 10.8741 26.2911 11.2355 26.2911 11.6031V13.0073C26.07 12.8533 25.7783 12.7391 25.5025 12.6903L25.5953 10.7917C25.5827 9.8852 24.8681 9.13716 23.9654 9.09912H22.3105C21.1822 9.09912 20.1604 8.4335 19.6965 7.39386C19.5774 7.09591 19.2891 6.89939 18.9694 6.89939H17.4649C15.2835 6.89939 13.5157 8.68707 13.5157 10.8931L13.5519 12.7101C13.2518 12.7543 12.9382 12.8546 12.7008 13.0218V11.6031C12.7008 11.2355 12.588 10.8741 12.3811 10.5698C11.8169 9.73939 11.7166 8.62368 12.2119 7.67912C12.5566 7.02618 13.1145 6.56975 13.7477 6.34787C14.4247 6.10698 15.0014 5.65055 15.3838 5.03564C15.8727 4.25591 16.7315 3.73608 17.7157 3.73608C18.0981 3.73608 18.4616 3.81849 18.8001 3.95796C19.2515 4.15448 19.7592 4.15448 20.2106 3.95796C20.5428 3.81849 20.9064 3.73608 21.2888 3.73608C22.2855 3.73608 23.1568 4.27492 23.6395 5.07367C24.003 5.67591 24.5735 6.11332 25.238 6.34153Z" fill="url(#paint38_radial_26489_1793)"/>
<path d="M25.238 6.34153C25.846 6.55073 26.3914 6.97546 26.7361 7.58403C27.2878 8.55395 27.2063 9.71404 26.6108 10.5698C26.4039 10.8741 26.2911 11.2355 26.2911 11.6031V13.0073C26.07 12.8533 25.7783 12.7391 25.5025 12.6903L25.5953 10.7917C25.5827 9.8852 24.8681 9.13716 23.9654 9.09912H22.3105C21.1822 9.09912 20.1604 8.4335 19.6965 7.39386C19.5774 7.09591 19.2891 6.89939 18.9694 6.89939H17.4649C15.2835 6.89939 13.5157 8.68707 13.5157 10.8931L13.5519 12.7101C13.2518 12.7543 12.9382 12.8546 12.7008 13.0218V11.6031C12.7008 11.2355 12.588 10.8741 12.3811 10.5698C11.8169 9.73939 11.7166 8.62368 12.2119 7.67912C12.5566 7.02618 13.1145 6.56975 13.7477 6.34787C14.4247 6.10698 15.0014 5.65055 15.3838 5.03564C15.8727 4.25591 16.7315 3.73608 17.7157 3.73608C18.0981 3.73608 18.4616 3.81849 18.8001 3.95796C19.2515 4.15448 19.7592 4.15448 20.2106 3.95796C20.5428 3.81849 20.9064 3.73608 21.2888 3.73608C22.2855 3.73608 23.1568 4.27492 23.6395 5.07367C24.003 5.67591 24.5735 6.11332 25.238 6.34153Z" fill="url(#paint39_radial_26489_1793)"/>
<path d="M25.238 6.34153C25.846 6.55073 26.3914 6.97546 26.7361 7.58403C27.2878 8.55395 27.2063 9.71404 26.6108 10.5698C26.4039 10.8741 26.2911 11.2355 26.2911 11.6031V13.0073C26.07 12.8533 25.7783 12.7391 25.5025 12.6903L25.5953 10.7917C25.5827 9.8852 24.8681 9.13716 23.9654 9.09912H22.3105C21.1822 9.09912 20.1604 8.4335 19.6965 7.39386C19.5774 7.09591 19.2891 6.89939 18.9694 6.89939H17.4649C15.2835 6.89939 13.5157 8.68707 13.5157 10.8931L13.5519 12.7101C13.2518 12.7543 12.9382 12.8546 12.7008 13.0218V11.6031C12.7008 11.2355 12.588 10.8741 12.3811 10.5698C11.8169 9.73939 11.7166 8.62368 12.2119 7.67912C12.5566 7.02618 13.1145 6.56975 13.7477 6.34787C14.4247 6.10698 15.0014 5.65055 15.3838 5.03564C15.8727 4.25591 16.7315 3.73608 17.7157 3.73608C18.0981 3.73608 18.4616 3.81849 18.8001 3.95796C19.2515 4.15448 19.7592 4.15448 20.2106 3.95796C20.5428 3.81849 20.9064 3.73608 21.2888 3.73608C22.2855 3.73608 23.1568 4.27492 23.6395 5.07367C24.003 5.67591 24.5735 6.11332 25.238 6.34153Z" fill="url(#paint40_radial_26489_1793)"/>
</g>
<g filter="url(#filter5_i_26489_1793)">
<path d="M23.912 10.671C23.705 10.4906 23.4642 10.2995 23.0995 10.1847C22.7399 10.0715 22.2895 10.0411 21.6664 10.1173C21.4867 10.1393 21.3589 10.3028 21.3809 10.4825C21.4029 10.6622 21.5663 10.79 21.746 10.768C22.3147 10.6985 22.6631 10.7346 22.9026 10.81C23.137 10.8838 23.2955 11.0033 23.4815 11.1653C23.618 11.2842 23.825 11.2699 23.9439 11.1334C24.0628 10.9969 24.0485 10.7899 23.912 10.671Z" fill="#C05029"/>
</g>
<g filter="url(#filter6_i_26489_1793)">
<path d="M15.4687 10.5421C15.5752 10.4784 15.7284 10.3968 15.922 10.3207C16.309 10.1686 16.8621 10.0364 17.5239 10.1174C17.7036 10.1394 17.8314 10.3028 17.8094 10.4825C17.7875 10.6622 17.624 10.7901 17.4443 10.7681C16.9143 10.7032 16.4722 10.8088 16.1618 10.9308C16.0067 10.9918 15.8858 11.0564 15.8053 11.1046C15.7651 11.1287 15.7353 11.1485 15.7166 11.1614C15.7072 11.1679 15.7006 11.1726 15.697 11.1753L15.6937 11.1777C15.5509 11.2879 15.3457 11.2619 15.2348 11.1194C15.1237 10.9765 15.1494 10.7706 15.2923 10.6594L15.4687 10.5421Z" fill="#C05029"/>
</g>
<g filter="url(#filter7_f_26489_1793)">
<path d="M19.7747 7.55553C19.7471 7.5027 19.721 7.44879 19.6965 7.39383C19.5774 7.09588 19.289 6.89936 18.9693 6.89936H17.4649C15.2834 6.89936 13.5157 8.68704 13.5157 10.8931V11.2183C13.1138 10.9125 12.6084 10.2674 12.6084 9.22351C12.6084 7.9567 13.5323 7.31637 14.1217 6.90792C14.2881 6.79261 14.4278 6.69578 14.5125 6.60855C14.5485 6.57149 14.5877 6.52993 14.6303 6.48472C15.0435 6.04656 15.7795 5.26587 17.0649 4.92468C17.7541 4.74172 18.4534 4.71039 18.9944 4.73472C19.4668 4.75596 19.7995 5.16408 19.7995 5.63693V7.53963L19.7747 7.55553Z" fill="url(#paint41_radial_26489_1793)"/>
<path d="M19.7747 7.55553C19.7471 7.5027 19.721 7.44879 19.6965 7.39383C19.5774 7.09588 19.289 6.89936 18.9693 6.89936H17.4649C15.2834 6.89936 13.5157 8.68704 13.5157 10.8931V11.2183C13.1138 10.9125 12.6084 10.2674 12.6084 9.22351C12.6084 7.9567 13.5323 7.31637 14.1217 6.90792C14.2881 6.79261 14.4278 6.69578 14.5125 6.60855C14.5485 6.57149 14.5877 6.52993 14.6303 6.48472C15.0435 6.04656 15.7795 5.26587 17.0649 4.92468C17.7541 4.74172 18.4534 4.71039 18.9944 4.73472C19.4668 4.75596 19.7995 5.16408 19.7995 5.63693V7.53963L19.7747 7.55553Z" fill="url(#paint42_radial_26489_1793)"/>
</g>
<g filter="url(#filter8_f_26489_1793)">
<path d="M25.661 11.5412L25.6265 10.7952C25.614 9.89282 24.8683 9.14824 23.9656 9.11038H22.3107C21.2602 9.11038 20.302 8.53602 19.8005 7.62159C19.8005 7.62159 19.6775 7.33664 19.5875 6.8758C19.3952 5.89132 20.3135 5.15963 21.3019 5.33085C22.5215 5.54213 23.9871 5.94109 25.0454 6.63132C27.1073 7.97616 26.7463 10.3998 25.661 11.5412Z" fill="url(#paint43_radial_26489_1793)"/>
<path d="M25.661 11.5412L25.6265 10.7952C25.614 9.89282 24.8683 9.14824 23.9656 9.11038H22.3107C21.2602 9.11038 20.302 8.53602 19.8005 7.62159C19.8005 7.62159 19.6775 7.33664 19.5875 6.8758C19.3952 5.89132 20.3135 5.15963 21.3019 5.33085C22.5215 5.54213 23.9871 5.94109 25.0454 6.63132C27.1073 7.97616 26.7463 10.3998 25.661 11.5412Z" fill="url(#paint44_radial_26489_1793)"/>
<path d="M25.661 11.5412L25.6265 10.7952C25.614 9.89282 24.8683 9.14824 23.9656 9.11038H22.3107C21.2602 9.11038 20.302 8.53602 19.8005 7.62159C19.8005 7.62159 19.6775 7.33664 19.5875 6.8758C19.3952 5.89132 20.3135 5.15963 21.3019 5.33085C22.5215 5.54213 23.9871 5.94109 25.0454 6.63132C27.1073 7.97616 26.7463 10.3998 25.661 11.5412Z" fill="url(#paint45_radial_26489_1793)"/>
<path d="M25.661 11.5412L25.6265 10.7952C25.614 9.89282 24.8683 9.14824 23.9656 9.11038H22.3107C21.2602 9.11038 20.302 8.53602 19.8005 7.62159C19.8005 7.62159 19.6775 7.33664 19.5875 6.8758C19.3952 5.89132 20.3135 5.15963 21.3019 5.33085C22.5215 5.54213 23.9871 5.94109 25.0454 6.63132C27.1073 7.97616 26.7463 10.3998 25.661 11.5412Z" fill="url(#paint46_radial_26489_1793)"/>
<path d="M25.661 11.5412L25.6265 10.7952C25.614 9.89282 24.8683 9.14824 23.9656 9.11038H22.3107C21.2602 9.11038 20.302 8.53602 19.8005 7.62159C19.8005 7.62159 19.6775 7.33664 19.5875 6.8758C19.3952 5.89132 20.3135 5.15963 21.3019 5.33085C22.5215 5.54213 23.9871 5.94109 25.0454 6.63132C27.1073 7.97616 26.7463 10.3998 25.661 11.5412Z" fill="url(#paint47_radial_26489_1793)"/>
</g>
<path d="M22.3259 12.2249C23.0978 12.2249 23.7499 12.757 23.9273 13.4762C23.98 13.6824 23.8218 13.879 23.6108 13.879H20.9739C20.8061 13.879 20.6718 13.7255 20.7054 13.5577C20.854 12.8002 21.5204 12.2249 22.3259 12.2249Z" fill="white"/>
<path d="M22.0813 12.546C22.6662 12.546 23.1361 13.0207 23.1361 13.6008C23.1361 13.6967 23.1217 13.7926 23.0978 13.8789H21.0601C21.0361 13.7878 21.0217 13.6967 21.0217 13.6008C21.0217 13.0207 21.4964 12.546 22.0813 12.546Z" fill="url(#paint48_radial_26489_1793)"/>
<path d="M21.4773 13.6008C21.4773 13.2652 21.7458 12.9967 22.0814 12.9967C22.417 12.9967 22.6855 13.2652 22.6855 13.6008C22.6855 13.7015 22.6615 13.7974 22.6184 13.8789H21.5492C21.5013 13.7974 21.4773 13.7015 21.4773 13.6008Z" fill="black"/>
<g filter="url(#filter9_f_26489_1793)">
<path d="M22.0038 12.7691C22.0789 12.8696 21.9219 12.9921 21.7433 13.1257C21.5647 13.2592 21.4322 13.3532 21.357 13.2527C21.2819 13.1522 21.3657 12.9624 21.5443 12.8289C21.7229 12.6954 21.9286 12.6686 22.0038 12.7691Z" fill="#C7A7A3"/>
<path d="M22.0038 12.7691C22.0789 12.8696 21.9219 12.9921 21.7433 13.1257C21.5647 13.2592 21.4322 13.3532 21.357 13.2527C21.2819 13.1522 21.3657 12.9624 21.5443 12.8289C21.7229 12.6954 21.9286 12.6686 22.0038 12.7691Z" fill="url(#paint49_radial_26489_1793)"/>
</g>
<g filter="url(#filter10_f_26489_1793)">
<path d="M23.021 13.4619C22.9821 13.1892 22.8225 12.9837 22.7476 12.915L22.4404 13.2522L22.579 13.5218L23.021 13.4619Z" fill="url(#paint50_linear_26489_1793)"/>
</g>
<path d="M16.6742 12.2247C15.9022 12.2247 15.2501 12.7569 15.0727 13.4762C15.02 13.6823 15.1782 13.8789 15.3892 13.8789H18.0263C18.1941 13.8789 18.3284 13.7255 18.2948 13.5577C18.1462 12.8001 17.4749 12.2247 16.6742 12.2247Z" fill="white"/>
<path d="M16.9186 12.546C16.3337 12.546 15.8638 13.0207 15.8638 13.6009C15.8638 13.6968 15.8782 13.7927 15.9021 13.879H17.9399C17.9639 13.7879 17.9783 13.6968 17.9783 13.6009C17.9735 13.0207 17.5036 12.546 16.9186 12.546Z" fill="url(#paint51_radial_26489_1793)"/>
<path d="M17.5227 13.6008C17.5227 13.2652 17.2542 12.9967 16.9186 12.9967C16.583 12.9967 16.3145 13.2652 16.3145 13.6008C16.3145 13.7015 16.3384 13.7974 16.3816 13.8789H17.4508C17.494 13.7974 17.5227 13.7015 17.5227 13.6008Z" fill="black"/>
<g filter="url(#filter11_f_26489_1793)">
<path d="M17.8824 13.4769C17.8824 13.136 17.6052 12.9088 17.5303 12.8401L17.1895 13.1697L17.3992 13.5968L17.8824 13.4769Z" fill="url(#paint52_linear_26489_1793)"/>
</g>
<g filter="url(#filter12_f_26489_1793)">
<ellipse cx="16.6005" cy="12.9967" rx="0.460497" ry="0.233054" transform="rotate(-27.914 16.6005 12.9967)" fill="#C7A7A3" fill-opacity="0.9"/>
<ellipse cx="16.6005" cy="12.9967" rx="0.460497" ry="0.233054" transform="rotate(-27.914 16.6005 12.9967)" fill="url(#paint53_radial_26489_1793)"/>
</g>
<path d="M25.3171 15.7775C25.3949 14.5198 25.4699 13.2635 25.5353 12.0057C26.4283 12.162 27.107 12.9412 27.107 13.879C27.107 14.8918 26.3154 15.7196 25.3171 15.7775Z" fill="url(#paint54_linear_26489_1793)"/>
<path d="M25.3171 15.7775C25.3949 14.5198 25.4699 13.2635 25.5353 12.0057C26.4283 12.162 27.107 12.9412 27.107 13.879C27.107 14.8918 26.3154 15.7196 25.3171 15.7775Z" fill="url(#paint55_radial_26489_1793)"/>
<path d="M25.3171 15.7775C25.3949 14.5198 25.4699 13.2635 25.5353 12.0057C26.4283 12.162 27.107 12.9412 27.107 13.879C27.107 14.8918 26.3154 15.7196 25.3171 15.7775Z" fill="url(#paint56_radial_26489_1793)"/>
<path d="M13.5267 11.9958C12.6032 12.1261 11.8928 12.9195 11.8928 13.8789C11.8928 14.8942 12.6885 15.7237 13.6903 15.7779C13.614 14.515 13.5511 13.2592 13.5267 11.9958Z" fill="url(#paint57_linear_26489_1793)"/>
<path d="M13.5267 11.9958C12.6032 12.1261 11.8928 12.9195 11.8928 13.8789C11.8928 14.8942 12.6885 15.7237 13.6903 15.7779C13.614 14.515 13.5511 13.2592 13.5267 11.9958Z" fill="url(#paint58_radial_26489_1793)"/>
<g filter="url(#filter13_f_26489_1793)">
<path d="M13.5466 12.7771C13.0423 12.8902 12.6655 13.3405 12.6655 13.8789C12.6655 14.4519 13.0922 14.9252 13.6452 14.9983C13.6042 14.2575 13.5697 13.5181 13.5466 12.7771Z" fill="#DD8224"/>
</g>
<g filter="url(#filter14_f_26489_1793)">
<path d="M25.3643 15.0081C25.4098 14.2582 25.4539 13.5085 25.495 12.7585C26.052 12.828 26.483 13.3032 26.483 13.879C26.483 14.4991 25.9831 15.0025 25.3643 15.0081Z" fill="#FFC837"/>
</g>
<g filter="url(#filter15_f_26489_1793)">
<path d="M15.5132 10.8728C15.8169 10.6548 16.574 10.2715 17.4694 10.4221" stroke="#C96953" stroke-width="0.25" stroke-linecap="round"/>
</g>
<g filter="url(#filter16_f_26489_1793)">
<path d="M23.7087 10.8183C23.405 10.6004 22.6479 10.2171 21.7525 10.3676" stroke="#C96953" stroke-width="0.25" stroke-linecap="round"/>
</g>
<g filter="url(#filter17_f_26489_1793)">
<path d="M7.84229 13.6581V19.675C7.84229 20.5409 8.39943 21.3084 9.22266 21.5766L13.4048 22.9393" stroke="url(#paint59_linear_26489_1793)"/>
</g>
<g filter="url(#filter18_f_26489_1793)">
<path d="M5.07666 5.23621L5.2251 7.18152" stroke="url(#paint60_linear_26489_1793)" stroke-width="0.075" stroke-linecap="round"/>
</g>
<g filter="url(#filter19_f_26489_1793)">
<path d="M6.73291 4.25964L6.6626 6.55652" stroke="url(#paint61_linear_26489_1793)" stroke-width="0.075" stroke-linecap="round"/>
</g>
<g filter="url(#filter20_f_26489_1793)">
<path d="M8.34229 5.40808L8.10791 6.81433" stroke="url(#paint62_linear_26489_1793)" stroke-width="0.075" stroke-linecap="round"/>
</g>
<defs>
<filter id="filter0_ii_26489_1793" x="13.5156" y="6.89941" width="12.8296" height="14.7867" filterUnits="userSpaceOnUse" color-interpolation-filters="sRGB">
<feFlood flood-opacity="0" result="BackgroundImageFix"/>
<feBlend mode="normal" in="SourceGraphic" in2="BackgroundImageFix" result="shape"/>
<feColorMatrix in="SourceAlpha" type="matrix" values="0 0 0 0 0 0 0 0 0 0 0 0 0 0 0 0 0 0 127 0" result="hardAlpha"/>
<feOffset dx="0.75"/>
<feGaussianBlur stdDeviation="0.6"/>
<feComposite in2="hardAlpha" operator="arithmetic" k2="-1" k3="1"/>
<feColorMatrix type="matrix" values="0 0 0 0 0.823529 0 0 0 0 0.623529 0 0 0 0 0.313726 0 0 0 1 0"/>
<feBlend mode="normal" in2="shape" result="effect1_innerShadow_26489_1793"/>
<feColorMatrix in="SourceAlpha" type="matrix" values="0 0 0 0 0 0 0 0 0 0 0 0 0 0 0 0 0 0 127 0" result="hardAlpha"/>
<feOffset dy="0.2"/>
<feGaussianBlur stdDeviation="0.375"/>
<feComposite in2="hardAlpha" operator="arithmetic" k2="-1" k3="1"/>
<feColorMatrix type="matrix" values="0 0 0 0 0.980392 0 0 0 0 0.54902 0 0 0 0 0.0941176 0 0 0 1 0"/>
<feBlend mode="normal" in2="effect1_innerShadow_26489_1793" result="effect2_innerShadow_26489_1793"/>
</filter>
<filter id="filter1_f_26489_1793" x="17.1458" y="12.2185" width="4.21875" height="5.42761" filterUnits="userSpaceOnUse" color-interpolation-filters="sRGB">
<feFlood flood-opacity="0" result="BackgroundImageFix"/>
<feBlend mode="normal" in="SourceGraphic" in2="BackgroundImageFix" result="shape"/>
<feGaussianBlur stdDeviation="0.5" result="effect1_foregroundBlur_26489_1793"/>
</filter>
<filter id="filter2_f_26489_1793" x="18.2906" y="12.8871" width="2.41875" height="3.62761" filterUnits="userSpaceOnUse" color-interpolation-filters="sRGB">
<feFlood flood-opacity="0" result="BackgroundImageFix"/>
<feBlend mode="normal" in="SourceGraphic" in2="BackgroundImageFix" result="shape"/>
<feGaussianBlur stdDeviation="0.05" result="effect1_foregroundBlur_26489_1793"/>
</filter>
<filter id="filter3_f_26489_1793" x="17.348" y="16.9569" width="4.30376" height="1.76799" filterUnits="userSpaceOnUse" color-interpolation-filters="sRGB">
<feFlood flood-opacity="0" result="BackgroundImageFix"/>
<feBlend mode="normal" in="SourceGraphic" in2="BackgroundImageFix" result="shape"/>
<feGaussianBlur stdDeviation="0.05" result="effect1_foregroundBlur_26489_1793"/>
</filter>
<filter id="filter4_ii_26489_1793" x="11.8928" y="3.23608" width="15.2144" height="9.78564" filterUnits="userSpaceOnUse" color-interpolation-filters="sRGB">
<feFlood flood-opacity="0" result="BackgroundImageFix"/>
<feBlend mode="normal" in="SourceGraphic" in2="BackgroundImageFix" result="shape"/>
<feColorMatrix in="SourceAlpha" type="matrix" values="0 0 0 0 0 0 0 0 0 0 0 0 0 0 0 0 0 0 127 0" result="hardAlpha"/>
<feOffset dy="-0.5"/>
<feGaussianBlur stdDeviation="0.625"/>
<feComposite in2="hardAlpha" operator="arithmetic" k2="-1" k3="1"/>
<feColorMatrix type="matrix" values="0 0 0 0 0.945098 0 0 0 0 0.509804 0 0 0 0 0.0627451 0 0 0 1 0"/>
<feBlend mode="normal" in2="shape" result="effect1_innerShadow_26489_1793"/>
<feColorMatrix in="SourceAlpha" type="matrix" values="0 0 0 0 0 0 0 0 0 0 0 0 0 0 0 0 0 0 127 0" result="hardAlpha"/>
<feOffset dy="-0.2"/>
<feGaussianBlur stdDeviation="0.2"/>
<feComposite in2="hardAlpha" operator="arithmetic" k2="-1" k3="1"/>
<feColorMatrix type="matrix" values="0 0 0 0 0.862745 0 0 0 0 0.486275 0 0 0 0 0.0470588 0 0 0 1 0"/>
<feBlend mode="normal" in2="effect1_innerShadow_26489_1793" result="effect2_innerShadow_26489_1793"/>
</filter>
<filter id="filter5_i_26489_1793" x="21.3784" y="9.87532" width="2.74624" height="1.37065" filterUnits="userSpaceOnUse" color-interpolation-filters="sRGB">
<feFlood flood-opacity="0" result="BackgroundImageFix"/>
<feBlend mode="normal" in="SourceGraphic" in2="BackgroundImageFix" result="shape"/>
<feColorMatrix in="SourceAlpha" type="matrix" values="0 0 0 0 0 0 0 0 0 0 0 0 0 0 0 0 0 0 127 0" result="hardAlpha"/>
<feOffset dx="0.1" dy="-0.2"/>
<feGaussianBlur stdDeviation="0.125"/>
<feComposite in2="hardAlpha" operator="arithmetic" k2="-1" k3="1"/>
<feColorMatrix type="matrix" values="0 0 0 0 0.603922 0 0 0 0 0.243137 0 0 0 0 0.152941 0 0 0 1 0"/>
<feBlend mode="normal" in2="shape" result="effect1_innerShadow_26489_1793"/>
</filter>
<filter id="filter6_i_26489_1793" x="15.1658" y="9.89277" width="2.74624" height="1.3532" filterUnits="userSpaceOnUse" color-interpolation-filters="sRGB">
<feFlood flood-opacity="0" result="BackgroundImageFix"/>
<feBlend mode="normal" in="SourceGraphic" in2="BackgroundImageFix" result="shape"/>
<feColorMatrix in="SourceAlpha" type="matrix" values="0 0 0 0 0 0 0 0 0 0 0 0 0 0 0 0 0 0 127 0" result="hardAlpha"/>
<feOffset dx="0.1" dy="-0.2"/>
<feGaussianBlur stdDeviation="0.125"/>
<feComposite in2="hardAlpha" operator="arithmetic" k2="-1" k3="1"/>
<feColorMatrix type="matrix" values="0 0 0 0 0.603922 0 0 0 0 0.243137 0 0 0 0 0.152941 0 0 0 1 0"/>
<feBlend mode="normal" in2="shape" result="effect1_innerShadow_26489_1793"/>
</filter>
<filter id="filter7_f_26489_1793" x="12.1084" y="4.22754" width="8.19116" height="7.49084" filterUnits="userSpaceOnUse" color-interpolation-filters="sRGB">
<feFlood flood-opacity="0" result="BackgroundImageFix"/>
<feBlend mode="normal" in="SourceGraphic" in2="BackgroundImageFix" result="shape"/>
<feGaussianBlur stdDeviation="0.25" result="effect1_foregroundBlur_26489_1793"/>
</filter>
<filter id="filter8_f_26489_1793" x="19.0618" y="4.80591" width="7.97363" height="7.23523" filterUnits="userSpaceOnUse" color-interpolation-filters="sRGB">
<feFlood flood-opacity="0" result="BackgroundImageFix"/>
<feBlend mode="normal" in="SourceGraphic" in2="BackgroundImageFix" result="shape"/>
<feGaussianBlur stdDeviation="0.25" result="effect1_foregroundBlur_26489_1793"/>
</filter>
<filter id="filter9_f_26489_1793" x="21.2293" y="12.6083" width="0.893604" height="0.786548" filterUnits="userSpaceOnUse" color-interpolation-filters="sRGB">
<feFlood flood-opacity="0" result="BackgroundImageFix"/>
<feBlend mode="normal" in="SourceGraphic" in2="BackgroundImageFix" result="shape"/>
<feGaussianBlur stdDeviation="0.05" result="effect1_foregroundBlur_26489_1793"/>
</filter>
<filter id="filter10_f_26489_1793" x="22.2404" y="12.715" width="0.980566" height="1.00681" filterUnits="userSpaceOnUse" color-interpolation-filters="sRGB">
<feFlood flood-opacity="0" result="BackgroundImageFix"/>
<feBlend mode="normal" in="SourceGraphic" in2="BackgroundImageFix" result="shape"/>
<feGaussianBlur stdDeviation="0.1" result="effect1_foregroundBlur_26489_1793"/>
</filter>
<filter id="filter11_f_26489_1793" x="16.9895" y="12.6401" width="1.09287" height="1.15671" filterUnits="userSpaceOnUse" color-interpolation-filters="sRGB">
<feFlood flood-opacity="0" result="BackgroundImageFix"/>
<feBlend mode="normal" in="SourceGraphic" in2="BackgroundImageFix" result="shape"/>
<feGaussianBlur stdDeviation="0.1" result="effect1_foregroundBlur_26489_1793"/>
</filter>
<filter id="filter12_f_26489_1793" x="16.0792" y="12.5986" width="1.04277" height="0.796191" filterUnits="userSpaceOnUse" color-interpolation-filters="sRGB">
<feFlood flood-opacity="0" result="BackgroundImageFix"/>
<feBlend mode="normal" in="SourceGraphic" in2="BackgroundImageFix" result="shape"/>
<feGaussianBlur stdDeviation="0.05" result="effect1_foregroundBlur_26489_1793"/>
</filter>
<filter id="filter13_f_26489_1793" x="12.4155" y="12.5271" width="1.47974" height="2.72119" filterUnits="userSpaceOnUse" color-interpolation-filters="sRGB">
<feFlood flood-opacity="0" result="BackgroundImageFix"/>
<feBlend mode="normal" in="SourceGraphic" in2="BackgroundImageFix" result="shape"/>
<feGaussianBlur stdDeviation="0.125" result="effect1_foregroundBlur_26489_1793"/>
</filter>
<filter id="filter14_f_26489_1793" x="25.1143" y="12.5085" width="1.61865" height="2.74963" filterUnits="userSpaceOnUse" color-interpolation-filters="sRGB">
<feFlood flood-opacity="0" result="BackgroundImageFix"/>
<feBlend mode="normal" in="SourceGraphic" in2="BackgroundImageFix" result="shape"/>
<feGaussianBlur stdDeviation="0.125" result="effect1_foregroundBlur_26489_1793"/>
</filter>
<filter id="filter15_f_26489_1793" x="15.1382" y="10.0129" width="2.7063" height="1.23486" filterUnits="userSpaceOnUse" color-interpolation-filters="sRGB">
<feFlood flood-opacity="0" result="BackgroundImageFix"/>
<feBlend mode="normal" in="SourceGraphic" in2="BackgroundImageFix" result="shape"/>
<feGaussianBlur stdDeviation="0.125" result="effect1_foregroundBlur_26489_1793"/>
</filter>
<filter id="filter16_f_26489_1793" x="21.3774" y="9.9585" width="2.7063" height="1.23486" filterUnits="userSpaceOnUse" color-interpolation-filters="sRGB">
<feFlood flood-opacity="0" result="BackgroundImageFix"/>
<feBlend mode="normal" in="SourceGraphic" in2="BackgroundImageFix" result="shape"/>
<feGaussianBlur stdDeviation="0.125" result="effect1_foregroundBlur_26489_1793"/>
</filter>
<filter id="filter17_f_26489_1793" x="5.84229" y="12.1581" width="9.21729" height="12.7566" filterUnits="userSpaceOnUse" color-interpolation-filters="sRGB">
<feFlood flood-opacity="0" result="BackgroundImageFix"/>
<feBlend mode="normal" in="SourceGraphic" in2="BackgroundImageFix" result="shape"/>
<feGaussianBlur stdDeviation="0.75" result="effect1_foregroundBlur_26489_1793"/>
</filter>
<filter id="filter18_f_26489_1793" x="4.93906" y="5.09873" width="0.423633" height="2.22026" filterUnits="userSpaceOnUse" color-interpolation-filters="sRGB">
<feFlood flood-opacity="0" result="BackgroundImageFix"/>
<feBlend mode="normal" in="SourceGraphic" in2="BackgroundImageFix" result="shape"/>
<feGaussianBlur stdDeviation="0.05" result="effect1_foregroundBlur_26489_1793"/>
</filter>
<filter id="filter19_f_26489_1793" x="6.525" y="4.12217" width="0.345508" height="2.57183" filterUnits="userSpaceOnUse" color-interpolation-filters="sRGB">
<feFlood flood-opacity="0" result="BackgroundImageFix"/>
<feBlend mode="normal" in="SourceGraphic" in2="BackgroundImageFix" result="shape"/>
<feGaussianBlur stdDeviation="0.05" result="effect1_foregroundBlur_26489_1793"/>
</filter>
<filter id="filter20_f_26489_1793" x="7.97031" y="5.27061" width="0.50957" height="1.6812" filterUnits="userSpaceOnUse" color-interpolation-filters="sRGB">
<feFlood flood-opacity="0" result="BackgroundImageFix"/>
<feBlend mode="normal" in="SourceGraphic" in2="BackgroundImageFix" result="shape"/>
<feGaussianBlur stdDeviation="0.05" result="effect1_foregroundBlur_26489_1793"/>
</filter>
<radialGradient id="paint0_radial_26489_1793" cx="0" cy="0" r="1" gradientUnits="userSpaceOnUse" gradientTransform="translate(6.35963 11.8851) rotate(-68.8849) scale(6.4772 7.74881)">
<stop offset="0.474886" stop-color="#F4B937"/>
<stop offset="1" stop-color="#F2B830"/>
<stop offset="1" stop-color="#EEB32A"/>
</radialGradient>
<radialGradient id="paint1_radial_26489_1793" cx="0" cy="0" r="1" gradientUnits="userSpaceOnUse" gradientTransform="translate(10.6238 9.99911) rotate(130.764) scale(9.5721 2.30417)">
<stop offset="0.146595" stop-color="#D27C28"/>
<stop offset="1" stop-color="#E9AA33" stop-opacity="0"/>
</radialGradient>
<linearGradient id="paint2_linear_26489_1793" x1="6.84254" y1="12.546" x2="6.84254" y2="10.8429" gradientUnits="userSpaceOnUse">
<stop stop-color="#C77505"/>
<stop offset="1" stop-color="#EFB234" stop-opacity="0"/>
</linearGradient>
<radialGradient id="paint3_radial_26489_1793" cx="0" cy="0" r="1" gradientUnits="userSpaceOnUse" gradientTransform="translate(5.08473 5.07214) rotate(85.0559) scale(2.26624 0.271747)">
<stop offset="0.400744" stop-color="#EAAA15"/>
<stop offset="1" stop-color="#EAAA15" stop-opacity="0"/>
</radialGradient>
<radialGradient id="paint4_radial_26489_1793" cx="0" cy="0" r="1" gradientUnits="userSpaceOnUse" gradientTransform="translate(6.73317 3.90807) rotate(90.7884) scale(3.40657 0.26603)">
<stop offset="0.400744" stop-color="#EAAA15"/>
<stop offset="1" stop-color="#EAAA15" stop-opacity="0"/>
</radialGradient>
<radialGradient id="paint5_radial_26489_1793" cx="0" cy="0" r="1" gradientUnits="userSpaceOnUse" gradientTransform="translate(8.70192 3.14245) rotate(99.6086) scale(4.02522 0.57523)">
<stop offset="0.651533" stop-color="#EAAA15"/>
<stop offset="1" stop-color="#EAAA15" stop-opacity="0"/>
</radialGradient>
<radialGradient id="paint6_radial_26489_1793" cx="0" cy="0" r="1" gradientUnits="userSpaceOnUse" gradientTransform="translate(10.0457 3.68932) rotate(136.548) scale(1.22684 1.23301)">
<stop stop-color="#FFDC45"/>
<stop offset="1" stop-color="#FFDC45" stop-opacity="0"/>
</radialGradient>
<radialGradient id="paint7_radial_26489_1793" cx="0" cy="0" r="1" gradientUnits="userSpaceOnUse" gradientTransform="translate(8.29567 2.78307) rotate(138.965) scale(1.11858 0.93215)">
<stop stop-color="#FFDC45"/>
<stop offset="1" stop-color="#FFDC45" stop-opacity="0"/>
</radialGradient>
<radialGradient id="paint8_radial_26489_1793" cx="0" cy="0" r="1" gradientUnits="userSpaceOnUse" gradientTransform="translate(6.17067 3.34557) rotate(123.111) scale(0.858096 0.778796)">
<stop stop-color="#FFDC45"/>
<stop offset="1" stop-color="#FFDC45" stop-opacity="0"/>
</radialGradient>
<radialGradient id="paint9_radial_26489_1793" cx="0" cy="0" r="1" gradientUnits="userSpaceOnUse" gradientTransform="translate(4.59254 4.62682) rotate(129.369) scale(0.78825 0.715405)">
<stop stop-color="#FFDC45"/>
<stop offset="1" stop-color="#FFDC45" stop-opacity="0"/>
</radialGradient>
<radialGradient id="paint10_radial_26489_1793" cx="0" cy="0" r="1" gradientUnits="userSpaceOnUse" gradientTransform="translate(4.60817 5.21276) rotate(85.7226) scale(2.30438 0.446986)">
<stop stop-color="#FFCC3D"/>
<stop offset="1" stop-color="#FFCC3D" stop-opacity="0"/>
</radialGradient>
<linearGradient id="paint11_linear_26489_1793" x1="4.68604" y1="12.5643" x2="9.06104" y2="12.5643" gradientUnits="userSpaceOnUse">
<stop stop-color="#E6724B"/>
<stop offset="0.742857" stop-color="#D64D18"/>
</linearGradient>
<linearGradient id="paint12_linear_26489_1793" x1="6.95557" y1="11.9784" x2="6.95557" y2="12.2362" gradientUnits="userSpaceOnUse">
<stop stop-color="#DD6422"/>
<stop offset="1" stop-color="#DD6422" stop-opacity="0"/>
</linearGradient>
<radialGradient id="paint13_radial_26489_1793" cx="0" cy="0" r="1" gradientUnits="userSpaceOnUse" gradientTransform="translate(26.6719 27.2034) rotate(162.199) scale(9.15367 9.76062)">
<stop stop-color="#FF8045"/>
<stop offset="1" stop-color="#FF8045" stop-opacity="0"/>
</radialGradient>
<radialGradient id="paint14_radial_26489_1793" cx="0" cy="0" r="1" gradientUnits="userSpaceOnUse" gradientTransform="translate(11.4049 30.0018) rotate(-90) scale(4.62502 2.66619)">
<stop stop-color="#FF6E45"/>
<stop offset="1" stop-color="#FF6E45" stop-opacity="0"/>
</radialGradient>
<linearGradient id="paint15_linear_26489_1793" x1="9.95257" y1="26.6698" x2="11.9091" y2="20.3852" gradientUnits="userSpaceOnUse">
<stop stop-color="#FF4B54"/>
<stop offset="1" stop-color="#FF4B54" stop-opacity="0"/>
</linearGradient>
<radialGradient id="paint16_radial_26489_1793" cx="0" cy="0" r="1" gradientUnits="userSpaceOnUse" gradientTransform="translate(3.46739 13.0018) rotate(90) scale(8.8125 5.4375)">
<stop stop-color="#FF7C1F"/>
<stop offset="1" stop-color="#FF7C1F" stop-opacity="0"/>
</radialGradient>
<radialGradient id="paint17_radial_26489_1793" cx="0" cy="0" r="1" gradientUnits="userSpaceOnUse" gradientTransform="translate(17.4822 21.3042) rotate(-166.974) scale(8.15449 2.74633)">
<stop stop-color="#D93F13"/>
<stop offset="1" stop-color="#D93F13" stop-opacity="0"/>
</radialGradient>
<linearGradient id="paint18_linear_26489_1793" x1="14.0455" y1="24.3612" x2="13.483" y2="23.2987" gradientUnits="userSpaceOnUse">
<stop offset="0.133109" stop-color="#FF611D"/>
<stop offset="1" stop-color="#FF611D" stop-opacity="0"/>
</linearGradient>
<linearGradient id="paint19_linear_26489_1793" x1="17.8112" y1="20.6268" x2="19.8112" y2="24.0018" gradientUnits="userSpaceOnUse">
<stop stop-color="#D16C15"/>
<stop offset="1" stop-color="#FFC436"/>
</linearGradient>
<radialGradient id="paint20_radial_26489_1793" cx="0" cy="0" r="1" gradientUnits="userSpaceOnUse" gradientTransform="translate(19.5001 21.1893) rotate(90) scale(1.15625 2.61254)">
<stop stop-color="#E97E36"/>
<stop offset="1" stop-color="#E97E36" stop-opacity="0"/>
</radialGradient>
<radialGradient id="paint21_radial_26489_1793" cx="0" cy="0" r="1" gradientUnits="userSpaceOnUse" gradientTransform="translate(26.0572 15.3053) rotate(103.679) scale(3.85344 4.57759)">
<stop offset="0.0431525" stop-color="#FFC135"/>
<stop offset="0.909006" stop-color="#E26839"/>
</radialGradient>
<radialGradient id="paint22_radial_26489_1793" cx="0" cy="0" r="1" gradientUnits="userSpaceOnUse" gradientTransform="translate(25.1756 15.6223) rotate(53.9017) scale(0.588419 0.499872)">
<stop stop-color="#E18C2A"/>
<stop offset="1" stop-color="#E18C2A" stop-opacity="0"/>
</radialGradient>
<radialGradient id="paint23_radial_26489_1793" cx="0" cy="0" r="1" gradientUnits="userSpaceOnUse" gradientTransform="translate(12.9428 15.444) rotate(64.5923) scale(3.50905 1.59502)">
<stop stop-color="#D57A26"/>
<stop offset="1" stop-color="#D06A3C"/>
</radialGradient>
<radialGradient id="paint24_radial_26489_1793" cx="0" cy="0" r="1" gradientUnits="userSpaceOnUse" gradientTransform="translate(13.7253 15.4341) rotate(72.2903) scale(1.23735 1.08541)">
<stop offset="0.263377" stop-color="#BE691E"/>
<stop offset="0.977292" stop-color="#BE691E" stop-opacity="0"/>
</radialGradient>
<radialGradient id="paint25_radial_26489_1793" cx="0" cy="0" r="1" gradientUnits="userSpaceOnUse" gradientTransform="translate(22.8183 14.1928) rotate(180) scale(6.17882 10.9303)">
<stop stop-color="#FFE846"/>
<stop offset="1" stop-color="#F5A129"/>
</radialGradient>
<radialGradient id="paint26_radial_26489_1793" cx="0" cy="0" r="1" gradientUnits="userSpaceOnUse" gradientTransform="translate(19.2707 21.6805) rotate(-90) scale(4.00172 15.5671)">
<stop offset="0.0824176" stop-color="#E27426"/>
<stop offset="1" stop-color="#FFA041" stop-opacity="0"/>
</radialGradient>
<radialGradient id="paint27_radial_26489_1793" cx="0" cy="0" r="1" gradientUnits="userSpaceOnUse" gradientTransform="translate(25.5952 13.919) rotate(93.7745) scale(7.22757 2.65716)">
<stop offset="0.389903" stop-color="#FFD930"/>
<stop offset="1" stop-color="#FFD930" stop-opacity="0"/>
</radialGradient>
<radialGradient id="paint28_radial_26489_1793" cx="0" cy="0" r="1" gradientUnits="userSpaceOnUse" gradientTransform="translate(17.028 12.7976) rotate(-90) scale(1.67105 2.01185)">
<stop offset="0.276316" stop-color="#F59632"/>
<stop offset="1" stop-color="#F59632" stop-opacity="0"/>
</radialGradient>
<radialGradient id="paint29_radial_26489_1793" cx="0" cy="0" r="1" gradientUnits="userSpaceOnUse" gradientTransform="translate(22.4412 12.3111) rotate(-90) scale(1.81451 2.35348)">
<stop offset="0.178218" stop-color="#FFBE3A"/>
<stop offset="1" stop-color="#FFBE3A" stop-opacity="0"/>
</radialGradient>
<linearGradient id="paint30_linear_26489_1793" x1="19.5" y1="15.1721" x2="20.5103" y2="15.1721" gradientUnits="userSpaceOnUse">
<stop stop-color="#FFC92F"/>
<stop offset="1" stop-color="#FFEA47"/>
</linearGradient>
<linearGradient id="paint31_linear_26489_1793" x1="18.2321" y1="14.9883" x2="19.5016" y2="15.0584" gradientUnits="userSpaceOnUse">
<stop stop-color="#F49F22"/>
<stop offset="1" stop-color="#E88830" stop-opacity="0"/>
<stop offset="1" stop-color="#F49F22" stop-opacity="0"/>
</linearGradient>
<linearGradient id="paint32_linear_26489_1793" x1="19.5" y1="15.6434" x2="19.5" y2="16.6503" gradientUnits="userSpaceOnUse">
<stop stop-color="#E88830" stop-opacity="0"/>
<stop offset="0.844655" stop-color="#E88830"/>
</linearGradient>
<linearGradient id="paint33_linear_26489_1793" x1="19.5" y1="12.9871" x2="19.5" y2="13.4827" gradientUnits="userSpaceOnUse">
<stop stop-color="#FAC137"/>
<stop offset="1" stop-color="#FAC137" stop-opacity="0"/>
</linearGradient>
<radialGradient id="paint34_radial_26489_1793" cx="0" cy="0" r="1" gradientUnits="userSpaceOnUse" gradientTransform="translate(18.1682 18.08) rotate(-60.732) scale(0.839265 2.44229)">
<stop stop-color="#FFB534"/>
<stop offset="1" stop-color="#FFB534" stop-opacity="0"/>
</radialGradient>
<radialGradient id="paint35_radial_26489_1793" cx="0" cy="0" r="1" gradientUnits="userSpaceOnUse" gradientTransform="translate(19.4999 18.3758) rotate(-90) scale(0.851842 3.42718)">
<stop stop-color="#89014E"/>
<stop offset="1" stop-color="#87004D"/>
</radialGradient>
<linearGradient id="paint36_linear_26489_1793" x1="25.8393" y1="7.50004" x2="13.8739" y2="7.50004" gradientUnits="userSpaceOnUse">
<stop stop-color="#FFE235"/>
<stop offset="1" stop-color="#D29935"/>
</linearGradient>
<radialGradient id="paint37_radial_26489_1793" cx="0" cy="0" r="1" gradientUnits="userSpaceOnUse" gradientTransform="translate(13.3192 12.323) rotate(-90) scale(6.75928 11.9761)">
<stop offset="0.314517" stop-color="#C98537"/>
<stop offset="1" stop-color="#C98537" stop-opacity="0"/>
</radialGradient>
<radialGradient id="paint38_radial_26489_1793" cx="0" cy="0" r="1" gradientUnits="userSpaceOnUse" gradientTransform="translate(25.245 12.323) rotate(-90) scale(4.29345 7.60715)">
<stop stop-color="#FFB52A"/>
<stop offset="1" stop-color="#FFB52A" stop-opacity="0"/>
</radialGradient>
<radialGradient id="paint39_radial_26489_1793" cx="0" cy="0" r="1" gradientUnits="userSpaceOnUse" gradientTransform="translate(24.3535 4.90489) rotate(-159.121) scale(4.11329 2.1906)">
<stop stop-color="#FFE639"/>
<stop offset="1" stop-color="#FFE639" stop-opacity="0"/>
</radialGradient>
<radialGradient id="paint40_radial_26489_1793" cx="0" cy="0" r="1" gradientUnits="userSpaceOnUse" gradientTransform="translate(18.4302 3.02291) rotate(58.4652) scale(2.04536 4.73609)">
<stop offset="0.286771" stop-color="#F3C130"/>
<stop offset="1" stop-color="#F3C130" stop-opacity="0"/>
</radialGradient>
<radialGradient id="paint41_radial_26489_1793" cx="0" cy="0" r="1" gradientUnits="userSpaceOnUse" gradientTransform="translate(19.7995 4.72754) rotate(160.16) scale(4.78333 1.33132)">
<stop stop-color="#FFDD30"/>
<stop offset="1" stop-color="#FFDC2B" stop-opacity="0"/>
</radialGradient>
<radialGradient id="paint42_radial_26489_1793" cx="0" cy="0" r="1" gradientUnits="userSpaceOnUse" gradientTransform="translate(13.0814 10.3527) rotate(-57.7244) scale(7.12289 7.89143)">
<stop offset="0.0926981" stop-color="#D67227"/>
<stop offset="0.233498" stop-color="#EF8A23"/>
<stop offset="1" stop-color="#EF8A23" stop-opacity="0"/>
</radialGradient>
<radialGradient id="paint43_radial_26489_1793" cx="0" cy="0" r="1" gradientUnits="userSpaceOnUse" gradientTransform="translate(23.7792 6.09891) rotate(13.3074) scale(4.11209 2.29976)">
<stop stop-color="#FFEB3B"/>
<stop offset="1" stop-color="#FFEB3B" stop-opacity="0"/>
</radialGradient>
<radialGradient id="paint44_radial_26489_1793" cx="0" cy="0" r="1" gradientUnits="userSpaceOnUse" gradientTransform="translate(25.5621 11.5412) rotate(-120.119) scale(5.0607 2.82231)">
<stop stop-color="#EB8F29"/>
<stop offset="1" stop-color="#EB8F29" stop-opacity="0"/>
</radialGradient>
<radialGradient id="paint45_radial_26489_1793" cx="0" cy="0" r="1" gradientUnits="userSpaceOnUse" gradientTransform="translate(24.8291 11.1864) rotate(-120.695) scale(3.02699 2.16811)">
<stop offset="0.394122" stop-color="#E48421"/>
<stop offset="1" stop-color="#E48421" stop-opacity="0"/>
</radialGradient>
<radialGradient id="paint46_radial_26489_1793" cx="0" cy="0" r="1" gradientUnits="userSpaceOnUse" gradientTransform="translate(25.1659 5.96088) rotate(166.509) scale(5.83222 6.30485)">
<stop offset="0.734853" stop-color="#F29415" stop-opacity="0"/>
<stop offset="1" stop-color="#F29415"/>
</radialGradient>
<radialGradient id="paint47_radial_26489_1793" cx="0" cy="0" r="1" gradientUnits="userSpaceOnUse" gradientTransform="translate(23.5811 5.81299) rotate(107.002) scale(0.47426 2.16825)">
<stop offset="0.461072" stop-color="#FFCE3C"/>
<stop offset="1" stop-color="#FFCE3C" stop-opacity="0"/>
</radialGradient>
<radialGradient id="paint48_radial_26489_1793" cx="0" cy="0" r="1" gradientUnits="userSpaceOnUse" gradientTransform="translate(22.0789 13.1098) rotate(90) scale(0.958903 1.52524)">
<stop offset="0.80198" stop-color="#925C51"/>
<stop offset="1" stop-color="#694B43"/>
<stop offset="1" stop-color="#804D49"/>
<stop offset="1" stop-color="#85534D"/>
</radialGradient>
<radialGradient id="paint49_radial_26489_1793" cx="0" cy="0" r="1" gradientUnits="userSpaceOnUse" gradientTransform="translate(21.8093 13.2093) rotate(-127.812) scale(0.4471 0.61555)">
<stop offset="0.765532" stop-color="#FFE6E2" stop-opacity="0"/>
<stop offset="0.966159" stop-color="#FFE6E2"/>
</radialGradient>
<linearGradient id="paint50_linear_26489_1793" x1="22.9985" y1="13.1735" x2="22.6277" y2="13.402" gradientUnits="userSpaceOnUse">
<stop stop-color="#B4948D"/>
<stop offset="1" stop-color="#B4948D" stop-opacity="0"/>
</linearGradient>
<radialGradient id="paint51_radial_26489_1793" cx="0" cy="0" r="1" gradientUnits="userSpaceOnUse" gradientTransform="translate(16.921 13.1098) rotate(90) scale(0.958952 1.52532)">
<stop offset="0.80198" stop-color="#925C51"/>
<stop offset="1" stop-color="#694B43"/>
<stop offset="1" stop-color="#804D49"/>
<stop offset="1" stop-color="#85534D"/>
</radialGradient>
<linearGradient id="paint52_linear_26489_1793" x1="17.8003" y1="13.1735" x2="17.4295" y2="13.402" gradientUnits="userSpaceOnUse">
<stop stop-color="#B4948D"/>
<stop offset="1" stop-color="#B4948D" stop-opacity="0"/>
</linearGradient>
<radialGradient id="paint53_radial_26489_1793" cx="0" cy="0" r="1" gradientUnits="userSpaceOnUse" gradientTransform="translate(16.5827 13.3689) rotate(-90.897) scale(0.584032 0.70203)">
<stop offset="0.765532" stop-color="#FFE6E2" stop-opacity="0"/>
<stop offset="0.966159" stop-color="#FFE6E2"/>
</radialGradient>
<linearGradient id="paint54_linear_26489_1793" x1="27.107" y1="13.2054" x2="25.6807" y2="15.7775" gradientUnits="userSpaceOnUse">
<stop stop-color="#FFE343"/>
<stop offset="1" stop-color="#FFC136"/>
</linearGradient>
<radialGradient id="paint55_radial_26489_1793" cx="0" cy="0" r="1" gradientUnits="userSpaceOnUse" gradientTransform="translate(24.9576 13.1262) rotate(74.3475) scale(2.75345 2.627)">
<stop offset="0.856273" stop-color="#E1943D" stop-opacity="0"/>
<stop offset="1" stop-color="#E08F2E"/>
</radialGradient>
<radialGradient id="paint56_radial_26489_1793" cx="0" cy="0" r="1" gradientUnits="userSpaceOnUse" gradientTransform="translate(25.3836 13.77) rotate(-53.9198) scale(1.58101 1.3252)">
<stop offset="0.663731" stop-color="#FFBD22"/>
<stop offset="1" stop-color="#FFBD22" stop-opacity="0"/>
</radialGradient>
<linearGradient id="paint57_linear_26489_1793" x1="12.5862" y1="14.0374" x2="14.3097" y2="13.8869" gradientUnits="userSpaceOnUse">
<stop stop-color="#E39726"/>
<stop offset="1" stop-color="#D9851D"/>
</linearGradient>
<radialGradient id="paint58_radial_26489_1793" cx="0" cy="0" r="1" gradientUnits="userSpaceOnUse" gradientTransform="translate(13.2795 13.3242) rotate(101.248) scale(2.50172 2.45942)">
<stop offset="0.77507" stop-color="#C77937" stop-opacity="0"/>
<stop offset="1" stop-color="#C77937"/>
</radialGradient>
<linearGradient id="paint59_linear_26489_1793" x1="7.49854" y1="15.2831" x2="13.2485" y2="23.5643" gradientUnits="userSpaceOnUse">
<stop stop-color="#FF7636"/>
<stop offset="1" stop-color="#FF7636" stop-opacity="0"/>
</linearGradient>
<linearGradient id="paint60_linear_26489_1793" x1="5.15088" y1="5.23621" x2="5.15088" y2="7.18152" gradientUnits="userSpaceOnUse">
<stop stop-color="#B36B00"/>
<stop offset="1" stop-color="#EDAD18"/>
</linearGradient>
<linearGradient id="paint61_linear_26489_1793" x1="6.78369" y1="4.26355" x2="6.81104" y2="6.62683" gradientUnits="userSpaceOnUse">
<stop stop-color="#B36B00"/>
<stop offset="1" stop-color="#EDAD18"/>
</linearGradient>
<linearGradient id="paint62_linear_26489_1793" x1="8.4165" y1="4.49011" x2="8.44385" y2="6.85339" gradientUnits="userSpaceOnUse">
<stop stop-color="#B36B00"/>
<stop offset="1" stop-color="#EDAD18"/>
</linearGradient>
</defs>
</svg>
